<svg id="图层_1" data-name="图层 1" xmlns="http://www.w3.org/2000/svg" viewBox="0 0 1920 1080"><defs><style>.cls-1{fill:#f8f8f8;}.cls-2{fill:#71cdf4;}.cls-3{fill:#1972ee;}.cls-4{fill:#efc51a;}</style></defs><title>icon</title><rect class="cls-1" y="-3" width="1920" height="1080"/><path class="cls-2" d="M772,37.5C841,241,1004,395,1093.5,354,1245.89,284.19,1354,206.73,1354,48.5A272.74,272.74,0,0,0,1349.1-3H763.23A177.67,177.67,0,0,0,772,37.5Z"/><path class="cls-3" d="M1948,1086H1424.39S847,949.9,925.09,473C980.79,133,1228.93-3,1228.93-3h712Z"/><path class="cls-4" d="M-16.49,51H-17v958.09c98.56-59,247.32-190.82,321.37-482.26C386.13,205,166.33,51-16.49,51Z"/></svg>