<svg id="图层_1" data-name="图层 1" xmlns="http://www.w3.org/2000/svg" viewBox="0 0 32 28"><defs><style>.cls-1{fill:#666;}.cls-2{fill:#3169f6;}</style></defs><title>icon</title><path class="cls-1" d="M22.68,28H9.32a2.47,2.47,0,0,1-2.13-1.22L.5,15.21a2.43,2.43,0,0,1,0-2.42L7.19,1.22A2.47,2.47,0,0,1,9.32,0H22.68a2.47,2.47,0,0,1,2.13,1.22L31.5,12.79a2.43,2.43,0,0,1,0,2.42L24.81,26.78A2.47,2.47,0,0,1,22.68,28ZM9.32,2.43,2.61,14,9.3,25.56l-1.05.61,1.05-.61H22.68L29.39,14,22.7,2.44Zm0,0"/><path class="cls-2" d="M16,19.78A5.78,5.78,0,1,1,21.78,14,5.78,5.78,0,0,1,16,19.78Zm0-8.52A2.74,2.74,0,1,0,18.74,14,2.74,2.74,0,0,0,16,11.26Zm0,0"/></svg>