<svg id="图层_1" data-name="图层 1" xmlns="http://www.w3.org/2000/svg" viewBox="0 0 360 84"><defs><style>.cls-1{fill:#3169f6;}.cls-2{fill:#fff;}</style></defs><rect class="cls-1" x="-0.25" y="-0.5" width="360" height="84"/><path class="cls-2" d="M51.32,45,57.44,59.5H47.86a11.36,11.36,0,0,0-6.6-14.81,36.7,36.7,0,0,0-3.65-1.43c-.68-.22-1.29-.45-1.85-.67h0l0,0-.34-.13h0l-.06,0-.3-.13-.29-.13-.9-.37h0a4.42,4.42,0,0,1-2.25-1.9A3.5,3.5,0,0,1,31,38.45a4.92,4.92,0,0,1-.07-.78,4.41,4.41,0,0,1,8.81,0,4.33,4.33,0,0,1-.25,1.45v0h7.83A12.82,12.82,0,0,0,31,27.94V23.5H43.94c7.92,0,13.52,3.59,13.52,11.26C57.46,40.22,55.1,43.41,51.32,45Z"/><path class="cls-2" d="M37.88,52.12h0a2.58,2.58,0,0,0-.39-.14L31,49.66v6.83a5.19,5.19,0,0,0,5.11,3h.25a3.84,3.84,0,0,0,1.51-7.37Z"/><path class="cls-2" d="M68.89,47.31l1.33-1.57a5.59,5.59,0,0,0,3.84,1.71c1.74,0,2.72-.83,2.72-2s-1-1.72-2.31-2.31l-2-.86a4.13,4.13,0,0,1-2.93-3.77c0-2.27,2-4,4.73-4a6.14,6.14,0,0,1,4.36,1.82l-1.19,1.44a4.6,4.6,0,0,0-3.17-1.29c-1.47,0-2.42.71-2.42,1.86S73,40,74.17,40.5l2,.84c1.7.73,2.93,1.78,2.93,3.9,0,2.3-1.91,4.18-5.06,4.18A7.18,7.18,0,0,1,68.89,47.31Z"/><path class="cls-2" d="M80.63,38.41h1.84l.17,1.51h.06A4.69,4.69,0,0,1,86,38.14a2.87,2.87,0,0,1,3,2,5,5,0,0,1,3.5-2c2.25,0,3.31,1.52,3.31,4.26v6.77H93.56v-6.5c0-1.85-.59-2.6-1.8-2.6a3.58,3.58,0,0,0-2.43,1.47v7.63H87.08v-6.5c0-1.85-.56-2.6-1.8-2.6a3.63,3.63,0,0,0-2.42,1.47v7.63H80.63Z"/><path class="cls-2" d="M97.45,46.31c0-2.31,2-3.5,6.43-4,0-1.25-.46-2.35-2-2.35a5.91,5.91,0,0,0-3.11,1.1l-.84-1.53a8.28,8.28,0,0,1,4.34-1.4c2.68,0,3.91,1.7,3.91,4.55v6.48H104.3l-.2-1.24H104a5.31,5.31,0,0,1-3.42,1.49A3,3,0,0,1,97.45,46.31Zm6.43.08V43.75c-3.18.39-4.26,1.19-4.26,2.4s.72,1.49,1.68,1.49A3.79,3.79,0,0,0,103.88,46.39Z"/><path class="cls-2" d="M108.35,38.41h1.83l.18,1.94h.06a3.72,3.72,0,0,1,3-2.21,2.61,2.61,0,0,1,1.21.23l-.41,2a3.08,3.08,0,0,0-1.07-.18c-.88,0-1.94.61-2.63,2.31v6.71h-2.22Z"/><path class="cls-2" d="M119.53,35.44v3h2.79v1.8h-2.79v5.46c0,1.29.45,1.95,1.56,1.95a3.33,3.33,0,0,0,1.15-.25l.41,1.66a6.66,6.66,0,0,1-2.11.39c-2.42,0-3.26-1.5-3.26-3.77V40.21h-1.57"/><path class="cls-2" d="M131.75,49.17l-3.27-5.81h-2.32v5.81h-2.27V34.77h4.71c3,0,5.2,1.06,5.2,4.17a4,4,0,0,1-3,4.12l3.52,6.11Zm-5.59-7.63h2.17c2.09,0,3.22-.86,3.22-2.6s-1.13-2.35-3.22-2.35h-2.17Z"/><path class="cls-2" d="M134.55,43.81c0-3.6,2.4-5.67,5.06-5.67s5.07,2.07,5.07,5.67-2.41,5.61-5.07,5.61S134.55,47.37,134.55,43.81Zm7.82,0c0-2.29-1.05-3.82-2.76-3.82s-2.73,1.53-2.73,3.82,1.05,3.77,2.73,3.77S142.37,46.08,142.37,43.81Z"/><path class="cls-2" d="M145.58,43.81a5.28,5.28,0,0,1,5.32-5.67,4.59,4.59,0,0,1,3.15,1.23l-1.12,1.47A2.8,2.8,0,0,0,151,40c-1.8,0-3.09,1.53-3.09,3.82s1.23,3.77,3,3.77a3.69,3.69,0,0,0,2.35-1l.92,1.49a5.25,5.25,0,0,1-3.49,1.33C147.81,49.42,145.58,47.37,145.58,43.81Z"/><path class="cls-2" d="M155.48,33.58h2.19V43.63h.06L162,38.41h2.49l-3.66,4.36,4.07,6.4H162.4l-2.91-4.87-1.82,2.09v2.78h-2.19Z"/><path class="cls-2" d="M164.51,43.81c0-3.5,2.39-5.67,4.91-5.67,2.86,0,4.39,2,4.39,5.1a5.8,5.8,0,0,1-.1,1.14h-7a3.24,3.24,0,0,0,3.32,3.28,4.54,4.54,0,0,0,2.56-.8l.78,1.43a6.54,6.54,0,0,1-3.63,1.13C166.84,49.42,164.51,47.35,164.51,43.81Zm7.36-1c0-1.86-.84-2.93-2.41-2.93-1.35,0-2.54,1-2.75,2.93Z"/><path class="cls-2" d="M177.74,35.44v3h2.79v1.8h-2.79v5.46c0,1.29.45,1.95,1.56,1.95a3.44,3.44,0,0,0,1.16-.25l.41,1.66a6.78,6.78,0,0,1-2.12.39c-2.42,0-3.26-1.5-3.26-3.77V40.21h-1.57"/></svg>